<svg id="user-settings-02" xmlns="http://www.w3.org/2000/svg" width="60.796" height="58" viewBox="0 0 60.796 58">
  <path id="Path_1462" data-name="Path 1462" d="M11.051,17.786a28.955,28.955,0,0,1,29.065,0c.282.165.633.36,1.032.582a31.511,31.511,0,0,1,6.345,4.282,7.613,7.613,0,0,1,2.515,4.513,6.511,6.511,0,0,1-2.4,5.494c-2.935,2.753-6.479,4.978-11.07,4.978H14.628c-4.591,0-8.135-2.226-11.07-4.978a6.511,6.511,0,0,1-2.4-5.494A7.613,7.613,0,0,1,3.674,22.65a31.508,31.508,0,0,1,6.345-4.282C10.418,18.146,10.769,17.951,11.051,17.786Z" transform="translate(-1.125 20.366)" fill="#ef491e"/>
  <path id="Path_1463" data-name="Path 1463" d="M5.125,16.152A13.277,13.277,0,1,1,18.4,29.429,13.277,13.277,0,0,1,5.125,16.152Z" transform="translate(6.056 0.619)" fill="#ef491e"/>
  <path id="Path_1464" data-name="Path 1464" d="M25.658,1.625a2.8,2.8,0,0,1,2.8,2.8v.073a8.555,8.555,0,0,1,2.44,1.334l.172-.118a2.8,2.8,0,1,1,3.162,4.61l-.253.173a8.994,8.994,0,0,1,0,4.627l.252.173a2.8,2.8,0,0,1-3.162,4.61l-.172-.118a8.55,8.55,0,0,1-2.439,1.333v.073a2.8,2.8,0,0,1-5.59,0v-.073a8.555,8.555,0,0,1-2.439-1.333l-.172.118a2.8,2.8,0,1,1-3.162-4.61l.252-.173a9,9,0,0,1,0-4.627l-.253-.173a2.8,2.8,0,0,1,3.162-4.61l.172.118a8.554,8.554,0,0,1,2.44-1.334V4.42A2.8,2.8,0,0,1,25.658,1.625Zm0,7.986a2.983,2.983,0,0,0-2.5,1.394,3.342,3.342,0,0,0,0,3.6,2.941,2.941,0,0,0,5,0,3.342,3.342,0,0,0,0-3.6A2.983,2.983,0,0,0,25.658,9.611Z" transform="translate(25.354 -1.625)" fill="#ef491e" fill-rule="evenodd"/>
</svg>
