<svg id="layers-02" xmlns="http://www.w3.org/2000/svg" width="58.377" height="58.378" viewBox="0 0 58.377 58.378">
  <path id="Path_1465" data-name="Path 1465" d="M28.724,1.25a62.089,62.089,0,0,1,7.574.267,8.745,8.745,0,0,1,5.308,2.318,8.745,8.745,0,0,1,2.318,5.308,62.137,62.137,0,0,1,.267,7.574v3.007a62.135,62.135,0,0,1-.267,7.574,8.745,8.745,0,0,1-2.318,5.308A8.745,8.745,0,0,1,36.3,34.924a62.135,62.135,0,0,1-7.574.267H25.717a62.135,62.135,0,0,1-7.574-.267,8.745,8.745,0,0,1-5.308-2.318A8.745,8.745,0,0,1,10.517,27.3a62.133,62.133,0,0,1-.267-7.574h0V16.717h0a62.135,62.135,0,0,1,.267-7.574,8.745,8.745,0,0,1,2.318-5.308,8.745,8.745,0,0,1,5.308-2.318,62.089,62.089,0,0,1,7.574-.267h3.007Z" transform="translate(14.187 -1.25)" fill="#ef491e"/>
  <path id="Path_1466" data-name="Path 1466" d="M33.24,30.7a62.912,62.912,0,0,1-7.831-.3,12.1,12.1,0,0,1-7.256-3.282,12.1,12.1,0,0,1-3.282-7.256,62.966,62.966,0,0,1-.3-7.831V8.64c0-.659,0-1.307,0-1.942,0-.035,0-.053,0-.071a.829.829,0,0,0-.886-.779l-.048.006A8.745,8.745,0,0,0,8.335,8.172,8.745,8.745,0,0,0,6.017,13.48a62.091,62.091,0,0,0-.267,7.574v3.007a62.09,62.09,0,0,0,.267,7.574,8.745,8.745,0,0,0,2.318,5.308,8.745,8.745,0,0,0,5.308,2.318,62.082,62.082,0,0,0,7.574.267h3.007a62.08,62.08,0,0,0,7.574-.267,8.745,8.745,0,0,0,5.308-2.318,8.745,8.745,0,0,0,2.318-5.308c0-.02,0-.03.006-.048a.829.829,0,0,0-.78-.886h-.071c-.634,0-1.283,0-1.942,0Z" transform="translate(6.468 6.632)" fill="#ef491e"/>
  <path id="Path_1467" data-name="Path 1467" d="M10.074,13.14c0-.659,0-1.307,0-1.941,0-.035,0-.053,0-.071a.829.829,0,0,0-.886-.779l-.048.006a8.745,8.745,0,0,0-5.308,2.318A8.744,8.744,0,0,0,1.517,17.98a62.092,62.092,0,0,0-.267,7.574v3.007a62.094,62.094,0,0,0,.267,7.574,8.744,8.744,0,0,0,2.318,5.308,8.745,8.745,0,0,0,5.308,2.318,62.027,62.027,0,0,0,7.574.267h3.007a62.025,62.025,0,0,0,7.574-.267,8.745,8.745,0,0,0,5.308-2.318,8.744,8.744,0,0,0,2.318-5.308c0-.021,0-.031.006-.049a.829.829,0,0,0-.779-.886h-.072c-.634,0-1.283,0-1.941,0h-3.4a62.965,62.965,0,0,1-7.831-.3,12.1,12.1,0,0,1-7.256-3.282,12.1,12.1,0,0,1-3.282-7.256,62.967,62.967,0,0,1-.3-7.831Z" transform="translate(-1.25 14.351)" fill="#ef491e"/>
</svg>
