<svg id="calendar-favorite-02" xmlns="http://www.w3.org/2000/svg" width="55.729" height="58.383" viewBox="0 0 55.729 58.383">
  <path id="Path_1454" data-name="Path 1454" d="M10.308,3.654A2.654,2.654,0,1,0,5,3.654V4.845A20.333,20.333,0,0,1,8.225,4.13q.987-.143,2.082-.233Z" transform="translate(4.288 -1)" fill="#ef491e"/>
  <path id="Path_1455" data-name="Path 1455" d="M22.308,4.845a20.33,20.33,0,0,0-3.225-.714Q18.1,3.987,17,3.9V3.654a2.654,2.654,0,1,1,5.308,0Z" transform="translate(24.133 -1)" fill="#ef491e"/>
  <path id="Path_1456" data-name="Path 1456" d="M32.095,2h-5.46a95.96,95.96,0,0,0-12.621.477c-3.423.5-6.259,1.561-8.485,3.967C3.33,8.821,2.383,11.8,1.936,15.4A121.047,121.047,0,0,0,1.5,29V30.73a121.042,121.042,0,0,0,.436,13.6c.448,3.6,1.394,6.577,3.593,8.954,2.226,2.406,5.062,3.47,8.485,3.967a95.962,95.962,0,0,0,12.621.477h5.46a95.963,95.963,0,0,0,12.621-.477c3.423-.5,6.259-1.561,8.485-3.967,2.2-2.377,3.145-5.356,3.593-8.954a121.046,121.046,0,0,0,.436-13.6V29a121.05,121.05,0,0,0-.436-13.6C56.346,11.8,55.4,8.821,53.2,6.444c-2.226-2.406-5.062-3.47-8.485-3.967A95.961,95.961,0,0,0,32.095,2ZM9.456,20.576c-1.217,0-1.826,0-2.213.383s-.4.983-.411,2.185c-.023,1.786-.024,3.786-.024,6.039v1.363a119.142,119.142,0,0,0,.4,13.13c.383,3.081,1.1,4.79,2.222,6,1.1,1.186,2.6,1.919,5.352,2.319a94.008,94.008,0,0,0,12.067.421h5.042A94.009,94.009,0,0,0,43.952,52c2.755-.4,4.255-1.133,5.352-2.319,1.124-1.215,1.839-2.924,2.222-6a119.105,119.105,0,0,0,.4-13.13V29.183c0-2.253,0-4.253-.024-6.039-.016-1.2-.023-1.8-.411-2.185s-1-.383-2.213-.383Z" transform="translate(-1.5 0.654)" fill="#ef491e" fill-rule="evenodd"/>
  <path id="Path_1457" data-name="Path 1457" d="M18.612,11A3.691,3.691,0,0,1,21.8,13.3v0l1.16,2.338a1.622,1.622,0,0,0,.395.611,1.622,1.622,0,0,0,.7.2L26,16.782a3.684,3.684,0,0,1,3.083,2.353,3.694,3.694,0,0,1-1.148,3.7l0,0-1.519,1.533c-.283.286-.425.429-.477.614a1.633,1.633,0,0,0,.081.773l.415,1.824c.28,1.224.333,3.031-1.087,4.074s-3.138.443-4.215-.2l-1.75-1.045a1.647,1.647,0,0,0-.768-.335,1.645,1.645,0,0,0-.768.335L16.1,31.463c-1.082.647-2.788,1.244-4.213.2s-1.371-2.842-1.089-4.072l.416-1.813A1.632,1.632,0,0,0,11.292,25c-.053-.185-.194-.328-.477-.615L9.288,22.838a3.7,3.7,0,0,1-1.144-3.7,3.678,3.678,0,0,1,3.081-2.357l1.934-.325a1.617,1.617,0,0,0,.7-.2,1.618,1.618,0,0,0,.395-.611L15.415,13.3l0,0A3.7,3.7,0,0,1,18.612,11Z" transform="translate(9.249 15.538)" fill="#ef491e"/>
</svg>
