<svg id="user-multiple" xmlns="http://www.w3.org/2000/svg" width="67.404" height="58" viewBox="0 0 67.404 58">
  <path id="Path_1458" data-name="Path 1458" d="M40.931,18.092a31.351,31.351,0,0,1,6.306,4.171,7.624,7.624,0,0,1,2.574,4.555A6.552,6.552,0,0,1,47.347,32.4c-2.913,2.676-6.454,4.86-11.048,4.86H14.8c-4.593,0-8.135-2.185-11.048-4.86a6.552,6.552,0,0,1-2.463-5.585,7.624,7.624,0,0,1,2.574-4.555,31.36,31.36,0,0,1,6.306-4.171c.386-.209.722-.393.99-.546a29.185,29.185,0,0,1,28.786,0C40.208,17.7,40.545,17.882,40.931,18.092Z" transform="translate(-1.25 20.736)" fill="#ef491e"/>
  <path id="Path_1459" data-name="Path 1459" d="M4.25,17.642A14.892,14.892,0,1,1,19.142,32.534,14.892,14.892,0,0,1,4.25,17.642Z" transform="translate(5.155 -2.75)" fill="#ef491e"/>
  <path id="Path_1460" data-name="Path 1460" d="M14.692,24.387c-.569.836-.854,1.253-.746,1.667s.487.6,1.245.981A11.758,11.758,0,1,0,20.43,4.75a11.832,11.832,0,0,0-2.075.183c-.834.149-1.251.223-1.471.59s-.064.848.247,1.812a19.578,19.578,0,0,1,.948,6.038A19.5,19.5,0,0,1,14.692,24.387Z" transform="translate(25.81 1.52)" fill="#ef491e"/>
  <path id="Path_1461" data-name="Path 1461" d="M25.775,34.141A15.829,15.829,0,0,0,36.052,30.07a5.7,5.7,0,0,0,2.432-5.1,6.655,6.655,0,0,0-2.532-4.091,29.8,29.8,0,0,0-5.9-3.5c-.355-.173-.663-.323-.907-.449a28.809,28.809,0,0,0-10.084-2.988c-2.267-.245-3.4-.368-3.659.309s.75,1.4,2.769,2.853a21.148,21.148,0,0,1,2.159,1.755A12.281,12.281,0,0,1,24.349,26.3a10.094,10.094,0,0,1-.519,4.559c-.582,1.642-.873,2.462-.621,2.851.016.025.026.039.044.062C23.535,34.141,24.282,34.141,25.775,34.141Z" transform="translate(28.882 20.724)" fill="#ef491e"/>
</svg>
