<svg xmlns="http://www.w3.org/2000/svg" width="218" height="53.956" viewBox="0 0 218 53.956">
  <g id="logo" transform="translate(-514.2 -27.181)">
    <g id="Group_1" data-name="Group 1" transform="translate(514.2 33.357)">
      <path id="Path_1" data-name="Path 1" d="M525.892,51.573a11.692,11.692,0,1,0,11.692,11.692A11.692,11.692,0,0,0,525.892,51.573Zm0,17.871a6.179,6.179,0,1,1,6.178-6.179A6.179,6.179,0,0,1,525.892,69.444Z" transform="translate(-514.2 -44.756)" fill="#f9f9f9"/>
      <path id="Path_2" data-name="Path 2" d="M575.645,45.353a5.624,5.624,0,1,0,5.625,5.624A5.624,5.624,0,0,0,575.645,45.353Zm0,9.078a3.454,3.454,0,1,1,3.454-3.454A3.454,3.454,0,0,1,575.645,54.431Z" transform="translate(-533.908 -42.56)" fill="#f9f9f9"/>
      <path id="Path_3" data-name="Path 3" d="M570.433,84.632a8.828,8.828,0,1,0,8.828,8.828A8.828,8.828,0,0,0,570.433,84.632Zm0,14.234a5.406,5.406,0,1,1,5.406-5.406A5.406,5.406,0,0,1,570.433,98.866Z" transform="translate(-530.936 -56.428)" fill="#f9f9f9"/>
      <path id="Path_4" data-name="Path 4" d="M548.1,70.181h5.549l9.648-11.041,1.995,1.407L554.881,72.4h-7.937l-.713-.951,1.188-1.188Z" transform="translate(-525.508 -47.427)" fill="#f9f9f9"/>
      <path id="Path_5" data-name="Path 5" d="M576.755,60.916l-1.5,16.223,2.3.317,1.608-16.92-1.956.253Z" transform="translate(-535.754 -47.92)" fill="#f9f9f9"/>
      <path id="Path_6" data-name="Path 6" d="M548.414,97.433a16.973,16.973,0,0,1-11.474-7.171,14.213,14.213,0,0,1-4.989.9c-.2,0-.395-.008-.588-.015a22.2,22.2,0,0,0,19.568,11.7A11.512,11.512,0,0,1,548.414,97.433Z" transform="translate(-520.259 -58.415)" fill="#ef491e"/>
      <path id="Path_7" data-name="Path 7" d="M587.885,55.446a7.055,7.055,0,0,1-3.061,4.959,16.92,16.92,0,0,1,1.966,7.93,16.74,16.74,0,0,1-1.02,5.786,11.5,11.5,0,0,1,3.574,4.8,22.216,22.216,0,0,0-1.459-23.47Z" transform="translate(-539.134 -46.123)" fill="#74b125"/>
      <path id="Path_8" data-name="Path 8" d="M539.707,46.137a14.1,14.1,0,0,1,4.825,2.926,17,17,0,0,1,13.835-2.2,7.042,7.042,0,0,1,4.192-4.065,22.235,22.235,0,0,0-22.852,3.336Z" transform="translate(-523.205 -41.036)" fill="#2a76e6"/>
    </g>
    <g id="Group_2" data-name="Group 2" transform="translate(581.483 28.181)">
      <text id="MSP_Tech_Club" data-name="MSP Tech Club" transform="translate(-0.283 24)" fill="#f9f9f9" font-size="23" font-family="SegoeUI, Segoe UI"><tspan x="0" y="0">MSP Tech Club</tspan></text>
      <text id="Faculty_of_Shoubra_Engineering" data-name="Faculty of Shoubra Engineering" transform="translate(0 37.189)" fill="#f9f9f9" font-size="9" font-family="SegoeUI, Segoe UI"><tspan x="0" y="0">Faculty of Shoubra Engineering</tspan></text>
      <text id="Benha_University" data-name="Benha University" transform="translate(0 49.956)" fill="#f9f9f9" font-size="9" font-family="SegoeUI, Segoe UI"><tspan x="0" y="0">Benha University</tspan></text>
    </g>
  </g>
</svg>
